PathFileType	4	(x/y/z)	S02_PSF_T03
DataRate	CameraRate	NumFrames	NumMarkers	Units	OrigDataRate	OrigDataStartFrame	OrigNumFrames
240	240	8	51	mm	240	148	394
Frame#	Time	Sternum			R.Acromium			L.Acromium			Top.Head			R.ASIS			L.ASIS			R.PSIS			L.PSIS			R.Great.Tro			L.Great.Tro			R.Iliac.Crest			L.Iliac.Crest			V.Sacral			R.Thigh.Upper.Post			R.Thigh.Lower.Ant			R.Thigh.Lower.Post			R.Thigh.Upper.Ant			R.Knee.Lat			R.Knee.Med			R.Shank.Upper.Post			R.Shank.Lower.Ant			R.Shank.Lower.Post			R.Shank.Upper.Ant			R.Ankle.Lat			R.Ankle.Med			R.Heel.Upper			R.Heel.Med			R.Heel.Lat			R.Toe.Lat			R.Toe.Med			R.Toe.Tip			L.Thigh.Upper.Post			L.Thigh.Lower.Ant			L.Thigh.Lower.Post			L.Thigh.Upper.Ant			L.Knee.Lat			L.Knee.Med			L.Shank.Upper.Post			L.Shank.Lower.Ant			L.Shank.Lower.Post			L.Shank.Upper.Ant			L.Ankle.Lat			L.Ankle.Med			L.Heel.Upper			L.Heel.Med			L.Heel.Lat			L.Toe.Lat			L.Toe.Med			L.Toe.Tip			Cervical.Spine			Back			
		X1	Y1	Z1	X2	Y2	Z2	X3	Y3	Z3	X4	Y4	Z4	X5	Y5	Z5	X6	Y6	Z6	X7	Y7	Z7	X8	Y8	Z8	X9	Y9	Z9	X10	Y10	Z10	X11	Y11	Z11	X12	Y12	Z12	X13	Y13	Z13	X14	Y14	Z14	X15	Y15	Z15	X16	Y16	Z16	X17	Y17	Z17	X18	Y18	Z18	X19	Y19	Z19	X20	Y20	Z20	X21	Y21	Z21	X22	Y22	Z22	X23	Y23	Z23	X24	Y24	Z24	X25	Y25	Z25	X26	Y26	Z26	X27	Y27	Z27	X28	Y28	Z28	X29	Y29	Z29	X30	Y30	Z30	X31	Y31	Z31	X32	Y32	Z32	X33	Y33	Z33	X34	Y34	Z34	X35	Y35	Z35	X36	Y36	Z36	X37	Y37	Z37	X38	Y38	Z38	X39	Y39	Z39	X40	Y40	Z40	X41	Y41	Z41	X42	Y42	Z42	X43	Y43	Z43	X44	Y44	Z44	X45	Y45	Z45	X46	Y46	Z46	X47	Y47	Z47	X48	Y48	Z48	X49	Y49	Z49	X50	Y50	Z50	X51	Y51	Z51	

148	0.6125	-623.49	1057.8	294.76	-738.89	1291.8	444.35	-728.35	1297.7	151.33	-681.79	1583.1	307.19	-636.65	904.41	390.82	-653.55	878.1	179.58	-858.26	930.64	361.97	-870.43	930.97	288.64	-673.54	784.64	493.23	-800.02	782.82	112.1	-739.62	943.62	462.72	-785.11	923.55	128.58	-888.41	881.3	324.43	-599.21	605.16	469.28	-524.87	555.38	420.01	-582.2	518.74	446.95	-546.74	640.31	440.22	-538.24	456.22	425.98	-564.75	441.05	284.63	-573.77	238.33	411.29	-486.39	175.12	386.66	-552.43	168.58	399.25	-501.82	241.89	404.04	-519.16	86.028	384.56	-514.44	100.64	300.28	-579.27	69.111	329.81	-563.65	37.971	302.38	-572.95	38.555	366.05	-410.89	43.863	404.59	-380.91	41.685	297.84	-334.55	73.81	351.81	-872.5	588.06	149.04	-818.11	492.58	134.88	-891.85	500.77	167.41	-805.71	586.19	120.16	-859.33	419.86	143.47	-843.7	407.57	279.8	-1032.1	343.83	154.35	-1041.4	233.46	161.27	-1084.1	291.09	171.23	-1000.3	292.45	148.04	-1141.4	181.31	178.27	-1131.9	173.85	258.6	-1205.8	196.91	213.15	-1215.4	177.31	249.97	-1222.6	171.4	188.28	-1115	49.964	163.2	-1091.9	55.805	271.57	-1038.8	43.705	229.8	-812.24	1361	297.73	-886.91	1108.4	294.24
149	0.61667	-617.16	1058.3	295.35	-732.43	1292	445.22	-722.55	1298.1	152.21	-675.65	1583.4	308	-630.18	904.77	391.45	-647.03	878.25	180.49	-851.82	930.96	362.45	-863.77	931.04	289.03	-666.68	785.42	493.88	-792.77	781.9	112.57	-733.08	944.14	463.33	-778.23	923.83	129.04	-881.82	881.53	324.95	-592.92	605.75	469.77	-518.43	556.03	420.64	-575.81	519.35	447.41	-540.36	640.94	440.94	-531.67	456.73	426.13	-558.29	442.15	284.99	-570.06	239.08	411.64	-483.73	174.59	386.58	-549.81	169.03	399.51	-498.09	241.55	404.08	-518.13	86.043	384.54	-513.38	100.59	300.3	-578.7	69.65	329.84	-563.41	38.337	302.4	-572.67	39.017	366.07	-410.4	42.958	404.4	-380.38	40.121	297.58	-333.59	71.763	351.5	-863.74	586.61	149.21	-808.53	491.7	134.52	-882.31	499.08	167.19	-796.97	585.47	120.24	-849.46	418.93	142.68	-833.13	405.89	278.89	-1023.3	345.47	154.38	-1034.4	235.32	160.45	-1076	293.51	171.13	-992.72	293.83	147.1	-1134.8	184.64	177.75	-1125	176.88	258	-1198	202.51	212.89	-1208.2	183.64	250	-1215.8	177.67	188.21	-1113.3	52.191	163.19	-1089.4	57.481	271.35	-1037.5	43.03	229.43	-806.22	1361.3	298.81	-880.66	1108.6	295.21
150	0.62083	-610.88	1058.8	295.94	-725.98	1292.2	446.07	-716.77	1298.5	153.09	-669.51	1583.7	308.81	-623.75	905.22	392.07	-640.57	878.47	181.4	-845.42	931.34	362.92	-857.16	931.18	289.42	-659.89	786.27	494.51	-785.51	780.99	113.04	-726.58	944.73	463.91	-771.41	924.16	129.52	-875.26	881.81	325.48	-586.7	606.36	470.31	-512.1	556.68	421.31	-569.53	519.96	447.93	-534.07	641.57	441.68	-525.24	457.2	426.31	-551.79	443.26	285.37	-566.49	239.83	412.03	-481.2	174.09	386.54	-547.32	169.5	399.79	-494.51	241.23	404.16	-517.18	86.088	384.56	-512.43	100.59	300.34	-578.2	70.139	329.89	-563.2	38.69	302.44	-572.42	39.433	366.11	-409.98	42.209	404.24	-379.92	38.79	297.35	-332.75	69.984	351.23	-854.89	585.16	149.34	-798.81	490.86	134.11	-872.62	497.38	166.91	-788.14	584.8	120.28	-839.39	418.01	141.84	-822.32	404.23	277.94	-1014.3	347.12	154.39	-1027.1	237.19	159.63	-1067.6	295.94	171.03	-984.75	295.24	146.13	-1127.8	188.02	177.23	-1117.8	179.93	257.42	-1189.7	208.15	212.63	-1200.6	190.02	250.03	-1208.7	184.04	188.15	-1111.3	54.626	163.19	-1086.5	59.283	271.1	-1036	42.324	229	-800.2	1361.6	299.88	-874.45	1108.8	296.17
151	0.625	-604.65	1059.4	296.52	-719.54	1292.5	446.89	-711.03	1299	153.95	-663.38	1584.1	309.61	-617.36	905.78	392.7	-634.17	878.76	182.31	-839.06	931.79	363.37	-850.62	931.38	289.81	-653.18	787.18	495.14	-778.25	780.11	113.49	-720.13	945.38	464.47	-764.66	924.55	130.02	-868.76	882.16	326	-580.6	606.97	470.87	-505.89	557.31	422.01	-563.38	520.58	448.5	-527.87	642.19	442.44	-519	457.62	426.54	-545.27	444.36	285.74	-563.08	240.57	412.45	-478.82	173.62	386.53	-544.96	169.98	400.1	-491.1	240.93	404.27	-516.32	86.154	384.6	-511.58	100.63	300.41	-577.76	70.578	329.96	-563.01	39.028	302.49	-572.19	39.803	366.16	-409.61	41.598	404.11	-379.53	37.675	297.14	-332.03	68.451	351	-845.96	583.73	149.42	-788.98	490.07	133.65	-862.81	495.7	166.59	-779.24	584.17	120.28	-829.15	417.12	140.97	-811.27	402.6	276.95	-1005	348.79	154.36	-1019.4	239.08	158.82	-1058.9	298.38	170.92	-976.41	296.67	145.14	-1120.5	191.43	176.72	-1110.2	182.99	256.87	-1180.9	213.82	212.37	-1192.5	196.42	250.07	-1201	190.48	188.1	-1109	57.267	163.18	-1083.3	61.2	270.82	-1034.3	41.595	228.49	-794.19	1362	300.93	-868.27	1109.1	297.13
152	0.62917	-598.48	1060.1	297.09	-713.12	1292.9	447.68	-705.33	1299.5	154.79	-657.25	1584.5	310.41	-611.02	906.43	393.32	-627.84	879.11	183.22	-832.75	932.28	363.82	-844.14	931.63	290.19	-646.57	788.13	495.75	-771	779.27	113.95	-713.74	946.09	465	-758	924.98	130.53	-862.3	882.55	326.51	-574.61	607.57	471.47	-499.84	557.89	422.73	-557.39	521.17	449.1	-521.8	642.77	443.21	-512.98	457.97	426.81	-538.76	445.41	286.13	-559.82	241.29	412.9	-476.59	173.18	386.54	-542.74	170.45	400.43	-487.86	240.63	404.42	-515.54	86.234	384.66	-510.83	100.69	300.5	-577.38	70.97	330.04	-562.85	39.349	302.54	-571.99	40.129	366.22	-409.29	41.108	404	-379.2	36.754	296.95	-331.41	67.144	350.81	-836.97	582.32	149.46	-779.04	489.34	133.16	-852.89	494.04	166.23	-770.28	583.59	120.24	-818.76	416.27	140.07	-799.98	401.02	275.93	-995.44	350.46	154.32	-1011.3	240.96	158.03	-1049.9	300.82	170.81	-967.71	298.1	144.15	-1112.9	194.87	176.22	-1102.3	186.05	256.35	-1171.8	219.49	212.13	-1183.9	202.81	250.1	-1193	196.97	188.06	-1106.5	60.103	163.17	-1079.8	63.222	270.51	-1032.4	40.857	227.92	-788.19	1362.4	301.96	-862.14	1109.5	298.08
153	0.63333	-592.36	1060.8	297.65	-706.72	1293.3	448.44	-699.67	1300.1	155.63	-651.12	1585	311.2	-604.71	907.18	393.93	-621.57	879.52	184.11	-826.5	932.82	364.25	-837.73	931.94	290.57	-640.05	789.1	496.36	-763.78	778.47	114.41	-707.41	946.86	465.5	-751.43	925.45	131.06	-855.91	882.98	327.02	-568.76	608.15	472.09	-493.95	558.4	423.46	-551.57	521.74	449.73	-515.84	643.29	444.01	-507.21	458.25	427.14	-532.29	446.39	286.53	-556.72	241.97	413.35	-474.5	172.75	386.59	-540.65	170.91	400.76	-484.79	240.33	404.59	-514.84	86.323	384.74	-510.17	100.79	300.6	-577.06	71.317	330.15	-562.7	39.651	302.61	-571.8	40.414	366.29	-409.02	40.721	403.92	-378.92	36.006	296.79	-330.88	66.039	350.66	-827.93	580.95	149.46	-769.01	488.68	132.63	-842.88	492.42	165.83	-761.28	583.07	120.16	-808.22	415.46	139.15	-788.48	399.5	274.89	-985.58	352.13	154.25	-1002.9	242.84	157.27	-1040.7	303.25	170.72	-958.65	299.52	143.19	-1104.9	198.33	175.75	-1094.1	189.1	255.87	-1162.2	225.12	211.92	-1174.9	209.14	250.14	-1184.5	203.47	188.05	-1103.5	63.12	163.15	-1076	65.334	270.17	-1030.2	40.123	227.27	-782.2	1362.9	302.97	-856.04	1109.9	299.02
154	0.6375	-586.3	1061.5	298.21	-700.32	1293.8	449.18	-694.06	1300.7	156.44	-645.01	1585.5	311.98	-598.46	908.01	394.53	-615.36	880	184.98	-820.31	933.4	364.67	-831.4	932.29	290.95	-633.64	790.1	496.98	-756.6	777.72	114.88	-701.14	947.67	465.98	-744.97	925.94	131.6	-849.57	883.45	327.52	-563.06	608.68	472.73	-488.25	558.84	424.21	-545.95	522.25	450.37	-510.03	643.75	444.81	-501.72	458.44	427.53	-525.9	447.27	286.94	-553.8	242.61	413.81	-472.55	172.33	386.66	-538.69	171.35	401.09	-481.91	240.02	404.79	-514.22	86.416	384.84	-509.59	100.9	300.72	-576.78	71.623	330.26	-562.56	39.935	302.68	-571.63	40.661	366.36	-408.79	40.42	403.86	-378.69	35.409	296.65	-330.43	65.114	350.55	-818.85	579.63	149.42	-758.91	488.1	132.07	-832.79	490.86	165.4	-752.24	582.62	120.06	-797.57	414.71	138.22	-776.78	398.07	273.85	-975.46	353.81	154.17	-994.25	244.71	156.56	-1031.1	305.68	170.63	-949.25	300.91	142.27	-1096.7	201.79	175.3	-1085.5	192.13	255.45	-1152.2	230.68	211.73	-1165.5	215.37	250.19	-1175.5	209.94	188.07	-1100.3	66.301	163.12	-1071.7	67.517	269.79	-1027.8	39.41	226.55	-776.23	1363.4	303.97	-849.98	1110.4	299.96
155	0.64167	-580.28	1062.3	298.74	-693.95	1294.4	449.89	-688.5	1301.3	157.24	-638.91	1586	312.75	-592.26	908.92	395.13	-609.22	880.53	185.83	-814.17	934.02	365.08	-825.15	932.68	291.32	-627.34	791.09	497.6	-749.46	777.04	115.37	-694.93	948.52	466.44	-738.6	926.45	132.16	-843.31	883.95	328.01	-557.53	609.16	473.38	-482.75	559.18	424.96	-540.55	522.7	451.02	-504.36	644.12	445.62	-496.53	458.55	427.97	-519.66	448.04	287.36	-551.04	243.21	414.26	-470.75	171.92	386.76	-536.88	171.76	401.42	-479.2	239.71	405.01	-513.66	86.509	384.95	-509.09	101.02	300.84	-576.56	71.891	330.37	-562.45	40.199	302.75	-571.48	40.874	366.44	-408.59	40.192	403.82	-378.5	34.942	296.54	-330.05	64.347	350.46	-809.74	578.36	149.37	-748.76	487.61	131.49	-822.63	489.36	164.96	-743.19	582.25	119.93	-786.8	414.04	137.29	-764.89	396.73	272.8	-965.09	355.49	154.08	-985.26	246.59	155.89	-1021.3	308.09	170.56	-939.52	302.27	141.4	-1088.1	205.24	174.89	-1076.7	195.11	255.07	-1141.9	236.15	211.59	-1155.6	221.46	250.25	-1166.2	216.33	188.14	-1096.6	69.622	163.08	-1067.1	69.753	269.38	-1025	38.738	225.75	-770.28	1363.9	304.95	-843.95	1110.9	300.9
